<svg data-v-fde0c5aa="" xmlns="http://www.w3.org/2000/svg" viewBox="0 0 300 300" class="iconAbove"><!----><defs data-v-fde0c5aa=""><linearGradient data-v-fde0c5aa="" gradientTransform="rotate(25)" id="b4333cf5-0862-4538-b40d-06c572c95bfb" x1="0%" y1="0%" x2="100%" y2="0%"><stop data-v-fde0c5aa="" offset="0%" stop-color="#E90DCA" stop-opacity="1"></stop><stop data-v-fde0c5aa="" offset="100%" stop-color="#1536F1" stop-opacity="1"></stop></linearGradient></defs><rect data-v-fde0c5aa="" fill="url(#b4333cf5-0862-4538-b40d-06c572c95bfb)" x="0" y="0" width="300px" height="300px" class="logo-background-square"></rect><defs data-v-fde0c5aa=""><!----></defs><g data-v-fde0c5aa="" id="abf42768-66ea-4b56-9be9-6e91d7476687" fill="#ffffff" transform="matrix(5.227743224772174,0,0,5.227743224772174,14.137358742237872,190.47101442501497)"><path d="M7.36 8.37L5.95 8.06C5.56 8.93 4.77 9.42 3.99 9.42C2.98 9.42 2.23 8.76 2.44 7.28L4.80 7.28C6.38 7.28 7.74 6.80 7.78 5.17C7.81 4.00 6.82 3.01 5.12 3.01C3.16 3.01 1.44 4.35 0.95 6.86C0.48 9.37 1.67 10.71 3.64 10.71C5.28 10.71 6.59 9.93 7.36 8.37ZM4.86 4.31C5.57 4.31 6.24 4.61 6.23 5.19C6.22 5.88 5.74 6.13 4.97 6.13L2.69 6.13C3.11 4.89 4.05 4.31 4.86 4.31ZM9.20 10.50L11.37 7.90L12.59 10.50L14.35 10.50L12.47 6.73L15.54 3.22L13.78 3.22L11.80 5.66L10.77 3.22L8.96 3.22L10.67 6.78L7.41 10.50ZM15.23 8.40C15.08 9.83 16.06 10.71 17.84 10.71C19.45 10.71 20.99 10.04 21.29 8.43C21.56 7.03 20.69 6.52 19.87 6.30L18.00 5.84C17.61 5.74 17.29 5.52 17.39 5.11C17.49 4.56 18.20 4.26 18.98 4.26C19.78 4.26 20.31 4.56 20.23 5.33L21.62 5.33C21.91 3.99 21 3.01 19.26 3.01C17.72 3.01 16.27 3.65 15.95 5.22C15.72 6.43 16.46 6.96 17.37 7.20L19.14 7.64C19.71 7.80 19.92 8.05 19.82 8.53C19.68 9.25 18.79 9.46 18.12 9.46C17.07 9.46 16.65 8.90 16.67 8.18L15.23 8.40ZM23.90 6.86C24.23 5.10 25.20 4.31 26.22 4.31C27.06 4.31 27.69 4.69 27.55 5.73L29.06 5.73C29.39 3.84 28.08 3.01 26.46 3.01C24.50 3.01 22.83 4.35 22.34 6.86C21.87 9.37 23.02 10.71 24.98 10.71C26.54 10.71 27.89 9.88 28.60 8.22L27.15 7.92C26.71 8.97 26.03 9.42 25.24 9.42C24.21 9.42 23.56 8.62 23.90 6.86ZM31.04 10.50L31.74 6.82C32.00 5.40 32.80 4.47 34.01 4.47C34.44 4.47 34.68 4.59 34.93 4.77L35.55 3.39C35.25 3.12 34.89 3.01 34.33 3.01C33.38 3.01 32.70 3.50 32.06 4.48L32.30 3.22L30.87 3.22L29.48 10.50ZM38.68 2.00L38.98 0.42L37.42 0.42L37.13 2.00ZM37.04 10.50L38.43 3.22L36.88 3.22L35.49 10.50ZM39.73 13.30L40.40 9.79C40.70 10.39 41.30 10.71 42.07 10.71C43.99 10.71 45.51 9.23 45.96 6.86C46.41 4.49 45.50 3.01 43.58 3.01C42.66 3.01 41.90 3.47 41.36 4.17L41.52 3.22L40.11 3.22L38.18 13.30ZM40.81 6.86C41.15 5.17 42.22 4.31 43.13 4.31C44.14 4.31 44.74 5.17 44.41 6.86C44.07 8.57 43.18 9.42 42.14 9.42C41.12 9.42 40.49 8.57 40.81 6.86ZM49.91 9.20C49.67 9.27 49.46 9.28 49.32 9.28C48.66 9.28 48.75 8.83 48.87 8.20L49.60 4.44L50.89 4.44L51.13 3.22L49.83 3.22L50.27 0.85L48.61 1.46L48.27 3.22L47.24 3.22L47.01 4.44L48.05 4.44L47.28 8.37C47.01 9.80 47.18 10.64 48.71 10.64C48.97 10.64 49.50 10.57 49.81 10.47Z"></path></g><defs data-v-fde0c5aa=""><!----></defs><g data-v-fde0c5aa="" id="b6b04d1b-78eb-48c0-8704-e482f13be4a0" stroke="none" fill="#ffffff" transform="matrix(3.2835449825165295,0,0,3.2835449825165295,-14.17724912582647,-56.84462349624191)"><path d="M23.943 30.807L5 50.001l18.942 19.192a4.386 4.386 0 0 0 6.258.002 4.522 4.522 0 0 0 .002-6.338L18.193 50.695l-3.624 2.289 15.634-15.841a4.494 4.494 0 0 0 1.295-3.168 4.5 4.5 0 0 0-1.297-3.17 4.387 4.387 0 0 0-6.258.002zM76.057 30.808L95 50.001 76.058 69.193a4.386 4.386 0 0 1-6.258.002 4.522 4.522 0 0 1-.002-6.338l12.009-12.161 3.624 2.289-15.635-15.841a4.494 4.494 0 0 1-1.295-3.168 4.5 4.5 0 0 1 1.297-3.17 4.386 4.386 0 0 1 6.259.002zM60.899 32.352a4.492 4.492 0 0 0-2.366-2.476 4.386 4.386 0 0 0-5.825 2.288l-13.82 32.062a4.496 4.496 0 0 0-.048 3.422 4.492 4.492 0 0 0 2.366 2.476 4.386 4.386 0 0 0 5.825-2.288l13.82-32.062a4.496 4.496 0 0 0 .048-3.422z"></path></g><!----></svg>